<svg xmlns="http://www.w3.org/2000/svg" width="240" height="280" viewBox="0 0 240 280" fill="none"><g stroke="#28364C" stroke-width="3.5" stroke-linecap="round" stroke-linejoin="round"><ellipse cx="120" cy="195" rx="64" ry="70" fill="#E4BDA0"/><ellipse cx="65" cy="180" rx="23" ry="38" transform="rotate(28 65 180)" fill="#E4BDA0"/><ellipse cx="178" cy="176" rx="23" ry="38" transform="rotate(-35 178 176)" fill="#E4BDA0"/><ellipse cx="80" cy="244" rx="32" ry="25" fill="#D9A986"/><ellipse cx="160" cy="244" rx="32" ry="25" fill="#D9A986"/><ellipse cx="120" cy="202" rx="34" ry="39" fill="#F7DFC5"/><circle cx="62" cy="55" r="29" fill="#E4BDA0"/><circle cx="178" cy="55" r="29" fill="#E4BDA0"/><circle cx="62" cy="55" r="16" fill="#F7DFC5"/><circle cx="178" cy="55" r="16" fill="#F7DFC5"/><ellipse cx="120" cy="93" rx="71" ry="65" fill="#E4BDA0"/><ellipse cx="120" cy="118" rx="34" ry="25" fill="#F7DFC5"/><path d="M113 107q7-7 14 0-1 10-7 10t-7-10" fill="#28364C"/><path d="M120 117v9m-11 0q11 12 22 0"/><circle cx="96" cy="91" r="3" fill="#28364C"/><circle cx="145" cy="91" r="3" fill="#28364C"/><path d="M119 153q-25-22-33-7v24q14 9 33-10 19 19 35 10v-24q-12-15-35 7" fill="#FF96C9"/><circle cx="120" cy="156" r="7" fill="#FF96C9"/></g></svg>
